{"accessors": [{"bufferView": 0, "componentType": 5126, "count": 4, "max": [1, 0, 0], "min": [0, 0, -1], "type": "VEC3"}, {"bufferView": 1, "componentType": 5126, "count": 4, "max": [2, 0, 0], "min": [0, 0, -1], "type": "VEC3"}, {"bufferView": 2, "componentType": 5126, "count": 4, "type": "VEC3"}, {"bufferView": 3, "componentType": 5123, "count": 6, "type": "SCALAR"}, {"bufferView": 4, "componentType": 5126, "count": 7, "max": [2, 0, 0], "min": [0, 0, -1], "type": "VEC3"}, {"bufferView": 5, "componentType": 5126, "count": 7, "type": "VEC3"}, {"bufferView": 6, "componentType": 5123, "count": 9, "type": "SCALAR"}, {"bufferView": 7, "componentType": 5123, "count": 9, "type": "SCALAR"}], "asset": {"generator": "Daniel Tan Manual", "version": "2.0"}, "buffers": [{"byteLength": 360, "uri": "data:application/octet-stream;base64,"}], "bufferViews": [{"buffer": 0, "byteLength": 48, "byteOffset": 0, "target": 34962}, {"buffer": 0, "byteLength": 48, "byteOffset": 48, "target": 34962}, {"buffer": 0, "byteLength": 48, "byteOffset": 96, "target": 34962}, {"buffer": 0, "byteLength": 12, "byteOffset": 144, "target": 34963}, {"buffer": 0, "byteLength": 84, "byteOffset": 156, "target": 34962}, {"buffer": 0, "byteLength": 84, "byteOffset": 240, "target": 34962}, {"buffer": 0, "byteLength": 18, "byteOffset": 324, "target": 34963}, {"buffer": 0, "byteLength": 18, "byteOffset": 342, "target": 34963}], "materials": [{"doubleSided": true, "name": "blue", "pbrMetallicRoughness": {"baseColorFactor": [0, 0, 1, 1]}}, {"doubleSided": true, "name": "red", "pbrMetallicRoughness": {"baseColorFactor": [1, 0, 0, 1]}}, {"doubleSided": true, "name": "green", "pbrMetallicRoughness": {"baseColorFactor": [0, 1, 0, 1]}}, {"doubleSided": true, "name": "gray", "pbrMetallicRoughness": {"baseColorFactor": [0.5, 0.5, 0.5, 1]}}, {"alphaMode": "BLEND", "doubleSided": true, "name": "transparent-cyan", "pbrMetallicRoughness": {"baseColorFactor": [0, 1, 1, 0.3]}}, {"alphaMode": "BLEND", "doubleSided": true, "name": "transparent-yellow", "pbrMetallicRoughness": {"baseColorFactor": [1, 1, 0, 0.3]}}], "meshes": [{"name": "square-blue", "primitives": [{"attributes": {"NORMAL": 2, "POSITION": 0}, "indices": 3, "material": 0}]}, {"name": "square-red", "primitives": [{"attributes": {"NORMAL": 2, "POSITION": 0}, "indices": 3, "material": 1}]}, {"name": "square-gray", "primitives": [{"attributes": {"NORMAL": 2, "POSITION": 0}, "indices": 3, "material": 3}]}, {"name": "square-green", "primitives": [{"attributes": {"NORMAL": 2, "POSITION": 0}, "indices": 3, "material": 2}]}, {"name": "rectangle-blue", "primitives": [{"attributes": {"NORMAL": 2, "POSITION": 1}, "indices": 3, "material": 0}]}, {"name": "rectangle-red", "primitives": [{"attributes": {"NORMAL": 2, "POSITION": 1}, "indices": 3, "material": 1}]}, {"name": "rectangle-gray", "primitives": [{"attributes": {"NORMAL": 2, "POSITION": 1}, "indices": 3, "material": 3}]}, {"name": "rectangle-red/blue", "primitives": [{"attributes": {"NORMAL": 5, "POSITION": 4}, "indices": 6, "material": 1}, {"attributes": {"NORMAL": 5, "POSITION": 4}, "indices": 7, "material": 0}]}, {"name": "rectangle-blue/red", "primitives": [{"attributes": {"NORMAL": 5, "POSITION": 4}, "indices": 6, "material": 0}, {"attributes": {"NORMAL": 5, "POSITION": 4}, "indices": 7, "material": 1}]}, {"name": "square-transparent-cyan", "primitives": [{"attributes": {"NORMAL": 2, "POSITION": 0}, "indices": 3, "material": 4}]}, {"name": "rectangle-transparent-cyan", "primitives": [{"attributes": {"NORMAL": 2, "POSITION": 1}, "indices": 3, "material": 4}]}, {"name": "square-transparent-yellow", "primitives": [{"attributes": {"NORMAL": 2, "POSITION": 0}, "indices": 3, "material": 5}]}, {"name": "rectangle-transparent-yellow", "primitives": [{"attributes": {"NORMAL": 2, "POSITION": 1}, "indices": 3, "material": 5}]}], "nodes": [{"name": "smaple", "children": [1, 2, 3, 4, 5, 6, 7, 8, 9, 10, 11, 12, 13, 14, 15, 16, 17, 18, 19, 20, 21, 22, 23, 24, 25, 26, 27, 28, 29, 30, 31, 32, 33, 34, 35, 36, 37, 38, 39, 40, 41, 42, 43, 44, 45, 46, 47, 48, 49, 50, 51, 52, 53, 54, 55, 56, 57, 58, 59, 60, 61, 62, 63, 64, 65, 66, 67, 68, 69, 70, 71, 72, 73, 74, 75, 76, 77, 78, 79, 80, 81, 82, 83, 84, 85, 86, 87, 88, 89, 90, 91, 92, 93, 94, 95, 96, 97, 98, 99, 100, 101, 102, 103, 104, 105, 106, 107, 108, 109, 110, 111, 112, 113, 114, 115, 116, 117, 118, 119, 120, 121, 122, 123, 124, 125, 126, 127, 128, 129, 130, 131, 132, 133, 134, 135, 136, 137, 138, 139, 140, 141, 142, 143, 144, 145, 146, 147, 148, 149, 150, 151, 152, 153, 154, 155, 156, 157, 158, 159, 160, 161, 162, 163, 164, 165, 166, 167, 168, 169, 170, 171, 172, 173, 174, 175, 176, 177, 178, 179, 180]}, {"name": "edgeJ(0, 0, 0):-K", "rotation": [0, 0.70710678118, 0, 0.70710678118], "translation": [1.0, 0.0, -1.0], "mesh": 5}, {"name": "edgeJ(0, 0, 0):+K", "rotation": [0, 0.70710678118, 0, 0.70710678118], "translation": [1.0, 1.0, -1.0], "mesh": 5}, {"name": "edgeJ(0, 0, 0):-I", "rotation": [0.5, 0.5, -0.5, 0.5], "translation": [0.0, 0.0, -1.0], "mesh": 4}, {"name": "edgeJ(0, 0, 0):+I", "rotation": [0.5, 0.5, -0.5, 0.5], "translation": [1.0, 0.0, -1.0], "mesh": 4}, {"name": "edgeK(0, 0, 0):-J", "rotation": [0.5, 0.5, 0.5, 0.5], "translation": [1.0, 1.0, -0.0], "mesh": 6}, {"name": "edgeJ(0, 0, 0):+J", "rotation": [0.5, 0.5, 0.5, 0.5], "translation": [1.0, 1.0, -1.0], "mesh": 6}, {"name": "edgeJ(0, 0, 0):-I", "rotation": [0, 0, 0.70710678118, 0.70710678118], "translation": [0.0, 1.0, -0.0], "mesh": 6}, {"name": "edgeJ(0, 0, 0):+I", "rotation": [0, 0, 0.70710678118, 0.70710678118], "translation": [1.0, 1.0, -0.0], "mesh": 6}, {"name": "edgeK(0, 0, 1):-J", "rotation": [0.5, 0.5, 0.5, 0.5], "translation": [1.0, 4.0, -0.0], "mesh": 6}, {"name": "edgeJ(0, 0, 1):+J", "rotation": [0.5, 0.5, 0.5, 0.5], "translation": [1.0, 4.0, -1.0], "mesh": 6}, {"name": "edgeJ(0, 0, 1):-I", "rotation": [0, 0, 0.70710678118, 0.70710678118], "translation": [0.0, 4.0, -0.0], "mesh": 6}, {"name": "edgeJ(0, 0, 1):+I", "rotation": [0, 0, 0.70710678118, 0.70710678118], "translation": [1.0, 4.0, -0.0], "mesh": 6}, {"name": "edgeJ(0, 0, 2):-K", "rotation": [0, 0.70710678118, 0, 0.70710678118], "translation": [1.0, 6.0, -1.0], "mesh": 5}, {"name": "edgeJ(0, 0, 2):+K", "rotation": [0, 0.70710678118, 0, 0.70710678118], "translation": [1.0, 7.0, -1.0], "mesh": 5}, {"name": "edgeJ(0, 0, 2):-I", "rotation": [0.5, 0.5, -0.5, 0.5], "translation": [0.0, 6.0, -1.0], "mesh": 4}, {"name": "edgeJ(0, 0, 2):+I", "rotation": [0.5, 0.5, -0.5, 0.5], "translation": [1.0, 6.0, -1.0], "mesh": 4}, {"name": "edgeK(0, 0, 2):-J", "rotation": [0.5, 0.5, 0.5, 0.5], "translation": [1.0, 7.0, -0.0], "mesh": 6}, {"name": "edgeJ(0, 0, 2):+J", "rotation": [0.5, 0.5, 0.5, 0.5], "translation": [1.0, 7.0, -1.0], "mesh": 6}, {"name": "edgeJ(0, 0, 2):-I", "rotation": [0, 0, 0.70710678118, 0.70710678118], "translation": [0.0, 7.0, -0.0], "mesh": 6}, {"name": "edgeJ(0, 0, 2):+I", "rotation": [0, 0, 0.70710678118, 0.70710678118], "translation": [1.0, 7.0, -0.0], "mesh": 6}, {"name": "edgeJ(0, 0, 3):-K", "rotation": [0, 0.70710678118, 0, 0.70710678118], "translation": [1.0, 9.0, -1.0], "mesh": 5}, {"name": "edgeJ(0, 0, 3):+K", "rotation": [0, 0.70710678118, 0, 0.70710678118], "translation": [1.0, 10.0, -1.0], "mesh": 5}, {"name": "edgeJ(0, 0, 3):-I", "rotation": [0.5, 0.5, -0.5, 0.5], "translation": [0.0, 9.0, -1.0], "mesh": 4}, {"name": "edgeJ(0, 0, 3):+I", "rotation": [0.5, 0.5, -0.5, 0.5], "translation": [1.0, 9.0, -1.0], "mesh": 4}, {"name": "edgeK(0, 0, 3):-J", "rotation": [0.5, 0.5, 0.5, 0.5], "translation": [1.0, 10.0, -0.0], "mesh": 6}, {"name": "edgeJ(0, 0, 3):+J", "rotation": [0.5, 0.5, 0.5, 0.5], "translation": [1.0, 10.0, -1.0], "mesh": 6}, {"name": "edgeJ(0, 0, 3):-I", "rotation": [0, 0, 0.70710678118, 0.70710678118], "translation": [0.0, 10.0, -0.0], "mesh": 6}, {"name": "edgeJ(0, 0, 3):+I", "rotation": [0, 0, 0.70710678118, 0.70710678118], "translation": [1.0, 10.0, -0.0], "mesh": 6}, {"name": "edgeI(0, 1, 0):-K", "translation": [1.0, 0.0, -3.0], "mesh": 5}, {"name": "edgeI(0, 1, 0):+K", "translation": [1.0, 1.0, -3.0], "mesh": 5}, {"name": "edgeI(0, 1, 0):-J", "translation": [1.0, 0.0, -3.0], "rotation": [0.70710678118, 0, 0, 0.70710678118], "mesh": 4}, {"name": "edgeI(0, 1, 0):+J", "translation": [1.0, 0.0, -4.0], "rotation": [0.70710678118, 0, 0, 0.70710678118], "mesh": 4}, {"name": "edgeI(0, 1, 2):-K", "translation": [1.0, 6.0, -3.0], "mesh": 5}, {"name": "edgeI(0, 1, 2):+K", "translation": [1.0, 7.0, -3.0], "mesh": 5}, {"name": "edgeI(0, 1, 2):-J", "translation": [1.0, 6.0, -3.0], "rotation": [0.70710678118, 0, 0, 0.70710678118], "mesh": 4}, {"name": "edgeI(0, 1, 2):+J", "translation": [1.0, 6.0, -4.0], "rotation": [0.70710678118, 0, 0, 0.70710678118], "mesh": 4}, {"name": "edgeI(0, 1, 3):-K", "translation": [1.0, 9.0, -3.0], "mesh": 5}, {"name": "edgeI(0, 1, 3):+K", "translation": [1.0, 10.0, -3.0], "mesh": 5}, {"name": "edgeI(0, 1, 3):-J", "translation": [1.0, 9.0, -3.0], "rotation": [0.70710678118, 0, 0, 0.70710678118], "mesh": 4}, {"name": "edgeI(0, 1, 3):+J", "translation": [1.0, 9.0, -4.0], "rotation": [0.70710678118, 0, 0, 0.70710678118], "mesh": 4}, {"name": "edgeK(1, 0, 0):-J", "rotation": [0.5, 0.5, 0.5, 0.5], "translation": [4.0, 1.0, -0.0], "mesh": 6}, {"name": "edgeJ(1, 0, 0):+J", "rotation": [0.5, 0.5, 0.5, 0.5], "translation": [4.0, 1.0, -1.0], "mesh": 6}, {"name": "edgeJ(1, 0, 0):-I", "rotation": [0, 0, 0.70710678118, 0.70710678118], "translation": [3.0, 1.0, -0.0], "mesh": 6}, {"name": "edgeJ(1, 0, 0):+I", "rotation": [0, 0, 0.70710678118, 0.70710678118], "translation": [4.0, 1.0, -0.0], "mesh": 6}, {"name": "edgeJ(1, 0, 1):-K", "rotation": [0, 0.70710678118, 0, 0.70710678118], "translation": [4.0, 3.0, -1.0], "mesh": 5}, {"name": "edgeJ(1, 0, 1):+K", "rotation": [0, 0.70710678118, 0, 0.70710678118], "translation": [4.0, 4.0, -1.0], "mesh": 5}, {"name": "edgeJ(1, 0, 1):-I", "rotation": [0.5, 0.5, -0.5, 0.5], "translation": [3.0, 3.0, -1.0], "mesh": 4}, {"name": "edgeJ(1, 0, 1):+I", "rotation": [0.5, 0.5, -0.5, 0.5], "translation": [4.0, 3.0, -1.0], "mesh": 4}, {"name": "edgeK(1, 0, 1):-J", "rotation": [0.5, 0.5, 0.5, 0.5], "translation": [4.0, 4.0, -0.0], "mesh": 6}, {"name": "edgeJ(1, 0, 1):+J", "rotation": [0.5, 0.5, 0.5, 0.5], "translation": [4.0, 4.0, -1.0], "mesh": 6}, {"name": "edgeJ(1, 0, 1):-I", "rotation": [0, 0, 0.70710678118, 0.70710678118], "translation": [3.0, 4.0, -0.0], "mesh": 6}, {"name": "edgeJ(1, 0, 1):+I", "rotation": [0, 0, 0.70710678118, 0.70710678118], "translation": [4.0, 4.0, -0.0], "mesh": 6}, {"name": "edgeJ(1, 0, 2):-K", "rotation": [0, 0.70710678118, 0, 0.70710678118], "translation": [4.0, 6.0, -1.0], "mesh": 5}, {"name": "edgeJ(1, 0, 2):+K", "rotation": [0, 0.70710678118, 0, 0.70710678118], "translation": [4.0, 7.0, -1.0], "mesh": 5}, {"name": "edgeJ(1, 0, 2):-I", "rotation": [0.5, 0.5, -0.5, 0.5], "translation": [3.0, 6.0, -1.0], "mesh": 4}, {"name": "edgeJ(1, 0, 2):+I", "rotation": [0.5, 0.5, -0.5, 0.5], "translation": [4.0, 6.0, -1.0], "mesh": 4}, {"name": "edgeK(1, 0, 2):-J", "rotation": [0.5, 0.5, 0.5, 0.5], "translation": [4.0, 7.0, -0.0], "mesh": 6}, {"name": "edgeJ(1, 0, 2):+J", "rotation": [0.5, 0.5, 0.5, 0.5], "translation": [4.0, 7.0, -1.0], "mesh": 6}, {"name": "edgeJ(1, 0, 2):-I", "rotation": [0, 0, 0.70710678118, 0.70710678118], "translation": [3.0, 7.0, -0.0], "mesh": 6}, {"name": "edgeJ(1, 0, 2):+I", "rotation": [0, 0, 0.70710678118, 0.70710678118], "translation": [4.0, 7.0, -0.0], "mesh": 6}, {"name": "edgeJ(1, 0, 3):-K", "rotation": [0, 0.70710678118, 0, 0.70710678118], "translation": [4.0, 9.0, -1.0], "mesh": 5}, {"name": "edgeJ(1, 0, 3):+K", "rotation": [0, 0.70710678118, 0, 0.70710678118], "translation": [4.0, 10.0, -1.0], "mesh": 5}, {"name": "edgeJ(1, 0, 3):-I", "rotation": [0.5, 0.5, -0.5, 0.5], "translation": [3.0, 9.0, -1.0], "mesh": 4}, {"name": "edgeJ(1, 0, 3):+I", "rotation": [0.5, 0.5, -0.5, 0.5], "translation": [4.0, 9.0, -1.0], "mesh": 4}, {"name": "edgeK(1, 0, 3):-J", "rotation": [0.5, 0.5, 0.5, 0.5], "translation": [4.0, 10.0, -0.0], "mesh": 6}, {"name": "edgeJ(1, 0, 3):+J", "rotation": [0.5, 0.5, 0.5, 0.5], "translation": [4.0, 10.0, -1.0], "mesh": 6}, {"name": "edgeJ(1, 0, 3):-I", "rotation": [0, 0, 0.70710678118, 0.70710678118], "translation": [3.0, 10.0, -0.0], "mesh": 6}, {"name": "edgeJ(1, 0, 3):+I", "rotation": [0, 0, 0.70710678118, 0.70710678118], "translation": [4.0, 10.0, -0.0], "mesh": 6}, {"name": "edgeI(1, 1, 0):-K", "translation": [4.0, 0.0, -3.0], "mesh": 5}, {"name": "edgeI(1, 1, 0):+K", "translation": [4.0, 1.0, -3.0], "mesh": 5}, {"name": "edgeI(1, 1, 0):-J", "translation": [4.0, 0.0, -3.0], "rotation": [0.70710678118, 0, 0, 0.70710678118], "mesh": 4}, {"name": "edgeI(1, 1, 0):+J", "translation": [4.0, 0.0, -4.0], "rotation": [0.70710678118, 0, 0, 0.70710678118], "mesh": 4}, {"name": "edgeI(1, 1, 1):-K", "translation": [4.0, 3.0, -3.0], "mesh": 5}, {"name": "edgeI(1, 1, 1):+K", "translation": [4.0, 4.0, -3.0], "mesh": 5}, {"name": "edgeI(1, 1, 1):-J", "translation": [4.0, 3.0, -3.0], "rotation": [0.70710678118, 0, 0, 0.70710678118], "mesh": 4}, {"name": "edgeI(1, 1, 1):+J", "translation": [4.0, 3.0, -4.0], "rotation": [0.70710678118, 0, 0, 0.70710678118], "mesh": 4}, {"name": "edgeI(1, 1, 2):-K", "translation": [4.0, 6.0, -3.0], "mesh": 5}, {"name": "edgeI(1, 1, 2):+K", "translation": [4.0, 7.0, -3.0], "mesh": 5}, {"name": "edgeI(1, 1, 2):-J", "translation": [4.0, 6.0, -3.0], "rotation": [0.70710678118, 0, 0, 0.70710678118], "mesh": 4}, {"name": "edgeI(1, 1, 2):+J", "translation": [4.0, 6.0, -4.0], "rotation": [0.70710678118, 0, 0, 0.70710678118], "mesh": 4}, {"name": "edgeI(1, 1, 3):-K", "translation": [4.0, 9.0, -3.0], "mesh": 5}, {"name": "edgeI(1, 1, 3):+K", "translation": [4.0, 10.0, -3.0], "mesh": 5}, {"name": "edgeI(1, 1, 3):-J", "translation": [4.0, 9.0, -3.0], "rotation": [0.70710678118, 0, 0, 0.70710678118], "mesh": 4}, {"name": "edgeI(1, 1, 3):+J", "translation": [4.0, 9.0, -4.0], "rotation": [0.70710678118, 0, 0, 0.70710678118], "mesh": 4}, {"name": "edgeJ(2, 0, 0):-K", "rotation": [0, 0.70710678118, 0, 0.70710678118], "translation": [7.0, 0.0, -1.0], "mesh": 5}, {"name": "edgeJ(2, 0, 0):+K", "rotation": [0, 0.70710678118, 0, 0.70710678118], "translation": [7.0, 1.0, -1.0], "mesh": 5}, {"name": "edgeJ(2, 0, 0):-I", "rotation": [0.5, 0.5, -0.5, 0.5], "translation": [6.0, 0.0, -1.0], "mesh": 4}, {"name": "edgeJ(2, 0, 0):+I", "rotation": [0.5, 0.5, -0.5, 0.5], "translation": [7.0, 0.0, -1.0], "mesh": 4}, {"name": "edgeK(2, 0, 0):-J", "rotation": [0.5, 0.5, 0.5, 0.5], "translation": [7.0, 1.0, -0.0], "mesh": 6}, {"name": "edgeJ(2, 0, 0):+J", "rotation": [0.5, 0.5, 0.5, 0.5], "translation": [7.0, 1.0, -1.0], "mesh": 6}, {"name": "edgeJ(2, 0, 0):-I", "rotation": [0, 0, 0.70710678118, 0.70710678118], "translation": [6.0, 1.0, -0.0], "mesh": 6}, {"name": "edgeJ(2, 0, 0):+I", "rotation": [0, 0, 0.70710678118, 0.70710678118], "translation": [7.0, 1.0, -0.0], "mesh": 6}, {"name": "edgeJ(2, 0, 1):-K", "rotation": [0, 0.70710678118, 0, 0.70710678118], "translation": [7.0, 3.0, -1.0], "mesh": 5}, {"name": "edgeJ(2, 0, 1):+K", "rotation": [0, 0.70710678118, 0, 0.70710678118], "translation": [7.0, 4.0, -1.0], "mesh": 5}, {"name": "edgeJ(2, 0, 1):-I", "rotation": [0.5, 0.5, -0.5, 0.5], "translation": [6.0, 3.0, -1.0], "mesh": 4}, {"name": "edgeJ(2, 0, 1):+I", "rotation": [0.5, 0.5, -0.5, 0.5], "translation": [7.0, 3.0, -1.0], "mesh": 4}, {"name": "edgeK(2, 0, 1):-J", "rotation": [0.5, 0.5, 0.5, 0.5], "translation": [7.0, 4.0, -0.0], "mesh": 6}, {"name": "edgeJ(2, 0, 1):+J", "rotation": [0.5, 0.5, 0.5, 0.5], "translation": [7.0, 4.0, -1.0], "mesh": 6}, {"name": "edgeJ(2, 0, 1):-I", "rotation": [0, 0, 0.70710678118, 0.70710678118], "translation": [6.0, 4.0, -0.0], "mesh": 6}, {"name": "edgeJ(2, 0, 1):+I", "rotation": [0, 0, 0.70710678118, 0.70710678118], "translation": [7.0, 4.0, -0.0], "mesh": 6}, {"name": "edgeJ(2, 0, 2):-K", "rotation": [0, 0.70710678118, 0, 0.70710678118], "translation": [7.0, 6.0, -1.0], "mesh": 5}, {"name": "edgeJ(2, 0, 2):+K", "rotation": [0, 0.70710678118, 0, 0.70710678118], "translation": [7.0, 7.0, -1.0], "mesh": 5}, {"name": "edgeJ(2, 0, 2):-I", "rotation": [0.5, 0.5, -0.5, 0.5], "translation": [6.0, 6.0, -1.0], "mesh": 4}, {"name": "edgeJ(2, 0, 2):+I", "rotation": [0.5, 0.5, -0.5, 0.5], "translation": [7.0, 6.0, -1.0], "mesh": 4}, {"name": "edgeK(2, 0, 2):-J", "rotation": [0.5, 0.5, 0.5, 0.5], "translation": [7.0, 7.0, -0.0], "mesh": 6}, {"name": "edgeJ(2, 0, 2):+J", "rotation": [0.5, 0.5, 0.5, 0.5], "translation": [7.0, 7.0, -1.0], "mesh": 6}, {"name": "edgeJ(2, 0, 2):-I", "rotation": [0, 0, 0.70710678118, 0.70710678118], "translation": [6.0, 7.0, -0.0], "mesh": 6}, {"name": "edgeJ(2, 0, 2):+I", "rotation": [0, 0, 0.70710678118, 0.70710678118], "translation": [7.0, 7.0, -0.0], "mesh": 6}, {"name": "edgeI(2, 1, 0):-K", "translation": [7.0, 0.0, -3.0], "mesh": 5}, {"name": "edgeI(2, 1, 0):+K", "translation": [7.0, 1.0, -3.0], "mesh": 5}, {"name": "edgeI(2, 1, 0):-J", "translation": [7.0, 0.0, -3.0], "rotation": [0.70710678118, 0, 0, 0.70710678118], "mesh": 4}, {"name": "edgeI(2, 1, 0):+J", "translation": [7.0, 0.0, -4.0], "rotation": [0.70710678118, 0, 0, 0.70710678118], "mesh": 4}, {"name": "edgeI(2, 1, 1):-K", "translation": [7.0, 3.0, -3.0], "mesh": 5}, {"name": "edgeI(2, 1, 1):+K", "translation": [7.0, 4.0, -3.0], "mesh": 5}, {"name": "edgeI(2, 1, 1):-J", "translation": [7.0, 3.0, -3.0], "rotation": [0.70710678118, 0, 0, 0.70710678118], "mesh": 4}, {"name": "edgeI(2, 1, 1):+J", "translation": [7.0, 3.0, -4.0], "rotation": [0.70710678118, 0, 0, 0.70710678118], "mesh": 4}, {"name": "edgeI(2, 1, 2):-K", "translation": [7.0, 6.0, -3.0], "mesh": 5}, {"name": "edgeI(2, 1, 2):+K", "translation": [7.0, 7.0, -3.0], "mesh": 5}, {"name": "edgeI(2, 1, 2):-J", "translation": [7.0, 6.0, -3.0], "rotation": [0.70710678118, 0, 0, 0.70710678118], "mesh": 4}, {"name": "edgeI(2, 1, 2):+J", "translation": [7.0, 6.0, -4.0], "rotation": [0.70710678118, 0, 0, 0.70710678118], "mesh": 4}, {"name": "edgeI(2, 1, 3):-K", "translation": [7.0, 9.0, -3.0], "mesh": 5}, {"name": "edgeI(2, 1, 3):+K", "translation": [7.0, 10.0, -3.0], "mesh": 5}, {"name": "edgeI(2, 1, 3):-J", "translation": [7.0, 9.0, -3.0], "rotation": [0.70710678118, 0, 0, 0.70710678118], "mesh": 4}, {"name": "edgeI(2, 1, 3):+J", "translation": [7.0, 9.0, -4.0], "rotation": [0.70710678118, 0, 0, 0.70710678118], "mesh": 4}, {"name": "edgeJ(3, 0, 0):-K", "rotation": [0, 0.70710678118, 0, 0.70710678118], "translation": [10.0, 0.0, -1.0], "mesh": 5}, {"name": "edgeJ(3, 0, 0):+K", "rotation": [0, 0.70710678118, 0, 0.70710678118], "translation": [10.0, 1.0, -1.0], "mesh": 5}, {"name": "edgeJ(3, 0, 0):-I", "rotation": [0.5, 0.5, -0.5, 0.5], "translation": [9.0, 0.0, -1.0], "mesh": 4}, {"name": "edgeJ(3, 0, 0):+I", "rotation": [0.5, 0.5, -0.5, 0.5], "translation": [10.0, 0.0, -1.0], "mesh": 4}, {"name": "edgeK(3, 0, 0):-J", "rotation": [0.5, 0.5, 0.5, 0.5], "translation": [10.0, 1.0, -0.0], "mesh": 6}, {"name": "edgeJ(3, 0, 0):+J", "rotation": [0.5, 0.5, 0.5, 0.5], "translation": [10.0, 1.0, -1.0], "mesh": 6}, {"name": "edgeJ(3, 0, 0):-I", "rotation": [0, 0, 0.70710678118, 0.70710678118], "translation": [9.0, 1.0, -0.0], "mesh": 6}, {"name": "edgeJ(3, 0, 0):+I", "rotation": [0, 0, 0.70710678118, 0.70710678118], "translation": [10.0, 1.0, -0.0], "mesh": 6}, {"name": "edgeJ(3, 0, 1):-K", "rotation": [0, 0.70710678118, 0, 0.70710678118], "translation": [10.0, 3.0, -1.0], "mesh": 5}, {"name": "edgeJ(3, 0, 1):+K", "rotation": [0, 0.70710678118, 0, 0.70710678118], "translation": [10.0, 4.0, -1.0], "mesh": 5}, {"name": "edgeJ(3, 0, 1):-I", "rotation": [0.5, 0.5, -0.5, 0.5], "translation": [9.0, 3.0, -1.0], "mesh": 4}, {"name": "edgeJ(3, 0, 1):+I", "rotation": [0.5, 0.5, -0.5, 0.5], "translation": [10.0, 3.0, -1.0], "mesh": 4}, {"name": "edgeK(3, 0, 1):-J", "rotation": [0.5, 0.5, 0.5, 0.5], "translation": [10.0, 4.0, -0.0], "mesh": 6}, {"name": "edgeJ(3, 0, 1):+J", "rotation": [0.5, 0.5, 0.5, 0.5], "translation": [10.0, 4.0, -1.0], "mesh": 6}, {"name": "edgeJ(3, 0, 1):-I", "rotation": [0, 0, 0.70710678118, 0.70710678118], "translation": [9.0, 4.0, -0.0], "mesh": 6}, {"name": "edgeJ(3, 0, 1):+I", "rotation": [0, 0, 0.70710678118, 0.70710678118], "translation": [10.0, 4.0, -0.0], "mesh": 6}, {"name": "edgeK(3, 0, 2):-J", "rotation": [0.5, 0.5, 0.5, 0.5], "translation": [10.0, 7.0, -0.0], "mesh": 6}, {"name": "edgeJ(3, 0, 2):+J", "rotation": [0.5, 0.5, 0.5, 0.5], "translation": [10.0, 7.0, -1.0], "mesh": 6}, {"name": "edgeJ(3, 0, 2):-I", "rotation": [0, 0, 0.70710678118, 0.70710678118], "translation": [9.0, 7.0, -0.0], "mesh": 6}, {"name": "edgeJ(3, 0, 2):+I", "rotation": [0, 0, 0.70710678118, 0.70710678118], "translation": [10.0, 7.0, -0.0], "mesh": 6}, {"name": "edgeJ(3, 0, 3):-K", "rotation": [0, 0.70710678118, 0, 0.70710678118], "translation": [10.0, 9.0, -1.0], "mesh": 5}, {"name": "edgeJ(3, 0, 3):+K", "rotation": [0, 0.70710678118, 0, 0.70710678118], "translation": [10.0, 10.0, -1.0], "mesh": 5}, {"name": "edgeJ(3, 0, 3):-I", "rotation": [0.5, 0.5, -0.5, 0.5], "translation": [9.0, 9.0, -1.0], "mesh": 4}, {"name": "edgeJ(3, 0, 3):+I", "rotation": [0.5, 0.5, -0.5, 0.5], "translation": [10.0, 9.0, -1.0], "mesh": 4}, {"name": "edgeK(3, 0, 3):-J", "rotation": [0.5, 0.5, 0.5, 0.5], "translation": [10.0, 10.0, -0.0], "mesh": 6}, {"name": "edgeJ(3, 0, 3):+J", "rotation": [0.5, 0.5, 0.5, 0.5], "translation": [10.0, 10.0, -1.0], "mesh": 6}, {"name": "edgeJ(3, 0, 3):-I", "rotation": [0, 0, 0.70710678118, 0.70710678118], "translation": [9.0, 10.0, -0.0], "mesh": 6}, {"name": "edgeJ(3, 0, 3):+I", "rotation": [0, 0, 0.70710678118, 0.70710678118], "translation": [10.0, 10.0, -0.0], "mesh": 6}, {"name": "edgeI(3, 1, 0):-K", "translation": [10.0, 0.0, -3.0], "mesh": 5}, {"name": "edgeI(3, 1, 0):+K", "translation": [10.0, 1.0, -3.0], "mesh": 5}, {"name": "edgeI(3, 1, 0):-J", "translation": [10.0, 0.0, -3.0], "rotation": [0.70710678118, 0, 0, 0.70710678118], "mesh": 4}, {"name": "edgeI(3, 1, 0):+J", "translation": [10.0, 0.0, -4.0], "rotation": [0.70710678118, 0, 0, 0.70710678118], "mesh": 4}, {"name": "edgeI(3, 1, 2):-K", "translation": [10.0, 6.0, -3.0], "mesh": 5}, {"name": "edgeI(3, 1, 2):+K", "translation": [10.0, 7.0, -3.0], "mesh": 5}, {"name": "edgeI(3, 1, 2):-J", "translation": [10.0, 6.0, -3.0], "rotation": [0.70710678118, 0, 0, 0.70710678118], "mesh": 4}, {"name": "edgeI(3, 1, 2):+J", "translation": [10.0, 6.0, -4.0], "rotation": [0.70710678118, 0, 0, 0.70710678118], "mesh": 4}, {"name": "edgeI(3, 1, 3):-K", "translation": [10.0, 9.0, -3.0], "mesh": 5}, {"name": "edgeI(3, 1, 3):+K", "translation": [10.0, 10.0, -3.0], "mesh": 5}, {"name": "edgeI(3, 1, 3):-J", "translation": [10.0, 9.0, -3.0], "rotation": [0.70710678118, 0, 0, 0.70710678118], "mesh": 4}, {"name": "edgeI(3, 1, 3):+J", "translation": [10.0, 9.0, -4.0], "rotation": [0.70710678118, 0, 0, 0.70710678118], "mesh": 4}, {"name": "edgeJ(4, 0, 3):-K", "rotation": [0, 0.70710678118, 0, 0.70710678118], "translation": [13.0, 9.0, -1.0], "mesh": 5}, {"name": "edgeJ(4, 0, 3):+K", "rotation": [0, 0.70710678118, 0, 0.70710678118], "translation": [13.0, 10.0, -1.0], "mesh": 5}, {"name": "edgeJ(4, 0, 3):-I", "rotation": [0.5, 0.5, -0.5, 0.5], "translation": [12.0, 9.0, -1.0], "mesh": 4}, {"name": "edgeJ(4, 0, 3):+I", "rotation": [0.5, 0.5, -0.5, 0.5], "translation": [13.0, 9.0, -1.0], "mesh": 4}, {"name": "edgeK(4, 0, 3):-J", "rotation": [0.5, 0.5, 0.5, 0.5], "translation": [13.0, 10.0, -0.0], "mesh": 6}, {"name": "edgeJ(4, 0, 3):+J", "rotation": [0.5, 0.5, 0.5, 0.5], "translation": [13.0, 10.0, -1.0], "mesh": 6}, {"name": "edgeJ(4, 0, 3):-I", "rotation": [0, 0, 0.70710678118, 0.70710678118], "translation": [12.0, 10.0, -0.0], "mesh": 6}, {"name": "edgeJ(4, 0, 3):+I", "rotation": [0, 0, 0.70710678118, 0.70710678118], "translation": [13.0, 10.0, -0.0], "mesh": 6}, {"name": "edgeK(4, 1, 0):-J", "rotation": [0.5, 0.5, 0.5, 0.5], "translation": [13.0, 1.0, -3.0], "mesh": 6}, {"name": "edgeJ(4, 1, 0):+J", "rotation": [0.5, 0.5, 0.5, 0.5], "translation": [13.0, 1.0, -4.0], "mesh": 6}, {"name": "edgeJ(4, 1, 0):-I", "rotation": [0, 0, 0.70710678118, 0.70710678118], "translation": [12.0, 1.0, -3.0], "mesh": 6}, {"name": "edgeJ(4, 1, 0):+I", "rotation": [0, 0, 0.70710678118, 0.70710678118], "translation": [13.0, 1.0, -3.0], "mesh": 6}, {"name": "edgeK(4, 1, 1):-J", "rotation": [0.5, 0.5, 0.5, 0.5], "translation": [13.0, 4.0, -3.0], "mesh": 6}, {"name": "edgeJ(4, 1, 1):+J", "rotation": [0.5, 0.5, 0.5, 0.5], "translation": [13.0, 4.0, -4.0], "mesh": 6}, {"name": "edgeJ(4, 1, 1):-I", "rotation": [0, 0, 0.70710678118, 0.70710678118], "translation": [12.0, 4.0, -3.0], "mesh": 6}, {"name": "edgeJ(4, 1, 1):+I", "rotation": [0, 0, 0.70710678118, 0.70710678118], "translation": [13.0, 4.0, -3.0], "mesh": 6}], "scene": 0, "scenes": [{"name": "Scene", "nodes": [0]}]}