<svg width="128" height="128" viewBox="0 0 128 128" xmlns="http://www.w3.org/2000/svg">
<path d="M64,70.15 L46.0733,80.5 L64,90.85 L81.9267,80.5 Z" fill="#FBBC04"/>
<path d="M44.0814,81.65 L26.1547,92 L44.0814,102.35 L62.0081,92 Z" fill="#174EA6"/>
<path d="M24.1628,93.15 L6.2361,103.5 L24.1628,113.85 L42.0896,103.5 Z" fill="#FBBC04"/>
<path d="M83.9186,81.65 L65.9919,92 L83.9186,102.35 L101.8453,92 Z" fill="#174EA6"/>
<path d="M64,93.15 L46.0733,103.5 L64,113.85 L81.9267,103.5 Z" fill="#FBBC04"/>
<path d="M44.0814,104.65 L26.1547,115 L44.0814,125.35 L62.0081,115 Z" fill="#174EA6"/>
<path d="M63.0041,68.425 L63.0041,47.725 L45.0773,58.075 L45.0773,78.775 Z" fill="#174EA6"/>
<path d="M63.0041,45.425 L63.0041,24.725 L45.0773,35.075 L45.0773,55.775 Z" fill="#FF8207"/>
<path d="M63.0041,22.425 L63.0041,1.725 L45.0773,12.075 L45.0773,32.775 Z" fill="#174EA6"/>
<path d="M43.0855,79.925 L43.0855,59.225 L25.1588,69.575 L25.1588,90.275 Z" fill="#FF8207"/>
<path d="M43.0855,56.925 L43.0855,36.225 L25.1588,46.575 L25.1588,67.275 Z" fill="#174EA6"/>
<path d="M43.0855,33.925 L43.0855,13.225 L25.1588,23.575 L25.1588,44.275 Z" fill="#FF8207"/>
<path d="M64.9959,68.425 L82.9227,78.775 L82.9227,58.075 L64.9959,47.725 Z" fill="#FF8207"/>
<path d="M84.9145,79.925 L102.8412,90.275 L102.8412,69.575 L84.9145,59.225 Z" fill="#FBBC04"/>
<path d="M104.8331,91.425 L122.7598,101.775 L122.7598,81.075 L104.8331,70.725 Z" fill="#FF8207"/>
<path d="M64.9959,45.425 L82.9227,55.775 L82.9227,35.075 L64.9959,24.725 Z" fill="#FBBC04"/>
<path d="M84.9145,56.925 L102.8412,67.275 L102.8412,46.575 L84.9145,36.225 Z" fill="#FF8207"/>
<path d="M104.8331,68.425 L122.7598,78.775 L122.7598,58.075 L104.8331,47.725 Z" fill="#FBBC04"/>
</svg>