{"accessors":[{"bufferView":0,"byteOffset":0,"componentType":5126,"count":32,"max":[8,2,0],"min":[0,-1,0],"name":"buf_blue_scattered_lines","type":"VEC3"}],"asset":{"version":"2.0"},"bufferViews":[{"buffer":0,"byteLength":384,"byteOffset":0,"name":"buf_blue_scattered_lines","target":34962}],"buffers":[{"byteLength":384,"name":"buf_blue_scattered_lines","uri":"data:application/octet-stream;base64,"}],"materials":[{"doubleSided":true,"name":"red","pbrMetallicRoughness":{"baseColorFactor":[1,0,0,1],"metallicFactor":1,"roughnessFactor":1}}],"meshes":[{"primitives":[{"attributes":{"POSITION":0},"material":0,"mode":1}]}],"nodes":[{"mesh":0,"translation":[0,0,0]}],"scene":0,"scenes":[{"nodes":[0]}]}