{"accessors":[{"bufferView":0,"byteOffset":0,"componentType":5126,"count":12,"max":[0,0.5,0.5],"min":[0,-0.5,-0.5],"name":"cube","type":"VEC3"},{"bufferView":1,"byteOffset":0,"componentType":5126,"count":12,"max":[0.375,0.5625],"min":[0.3125,0.5],"name":"tex_coords_gate_R","type":"VEC2"},{"bufferView":2,"byteOffset":0,"componentType":5126,"count":12,"max":[0.6875,0.4375],"min":[0.625,0.375],"name":"tex_coords_gate_MPP:X","type":"VEC2"},{"bufferView":3,"byteOffset":0,"componentType":5126,"count":12,"max":[0.6875,0.5625],"min":[0.625,0.5],"name":"tex_coords_gate_MPP:Z","type":"VEC2"},{"bufferView":4,"byteOffset":0,"componentType":5126,"count":12,"max":[0.3125,0.4375],"min":[0.25,0.375],"name":"tex_coords_gate_MX","type":"VEC2"},{"bufferView":5,"byteOffset":0,"componentType":5126,"count":12,"max":[0.875,0.5625],"min":[0.8125,0.5],"name":"tex_coords_gate_Z:REC","type":"VEC2"},{"bufferView":6,"byteOffset":0,"componentType":5126,"count":12,"max":[0.875,0.4375],"min":[0.8125,0.375],"name":"tex_coords_gate_X:REC","type":"VEC2"},{"bufferView":7,"byteOffset":0,"componentType":5126,"count":12,"max":[1,-0,-0],"min":[-5,-4,-0],"name":"buf_scattered_lines","type":"VEC3"},{"bufferView":8,"byteOffset":0,"componentType":5126,"count":6,"max":[0,2.5,-0],"min":[-3,1.5,-0],"name":"buf_red_scattered_lines","type":"VEC3"}],"asset":{"version":"2.0"},"bufferViews":[{"buffer":0,"byteLength":144,"byteOffset":0,"name":"cube","target":34962},{"buffer":1,"byteLength":96,"byteOffset":0,"name":"tex_coords_gate_R","target":34962},{"buffer":2,"byteLength":96,"byteOffset":0,"name":"tex_coords_gate_MPP:X","target":34962},{"buffer":3,"byteLength":96,"byteOffset":0,"name":"tex_coords_gate_MPP:Z","target":34962},{"buffer":4,"byteLength":96,"byteOffset":0,"name":"tex_coords_gate_MX","target":34962},{"buffer":5,"byteLength":96,"byteOffset":0,"name":"tex_coords_gate_Z:REC","target":34962},{"buffer":6,"byteLength":96,"byteOffset":0,"name":"tex_coords_gate_X:REC","target":34962},{"buffer":7,"byteLength":144,"byteOffset":0,"name":"buf_scattered_lines","target":34962},{"buffer":8,"byteLength":72,"byteOffset":0,"name":"buf_red_scattered_lines","target":34962}],"buffers":[{"byteLength":144,"name":"cube","uri":"data:application/octet-stream;base64,"},{"byteLength":96,"name":"tex_coords_gate_R","uri":"data:application/octet-stream;base64,"},{"byteLength":96,"name":"tex_coords_gate_MPP:X","uri":"data:application/octet-stream;base64,"},{"byteLength":96,"name":"tex_coords_gate_MPP:Z","uri":"data:application/octet-stream;base64,"},{"byteLength":96,"name":"tex_coords_gate_MX","uri":"data:application/octet-stream;base64,"},{"byteLength":96,"name":"tex_coords_gate_Z:REC","uri":"data:application/octet-stream;base64,"},{"byteLength":96,"name":"tex_coords_gate_X:REC","uri":"data:application/octet-stream;base64,"},{"byteLength":144,"name":"buf_scattered_lines","uri":"data:application/octet-stream;base64,"},{"byteLength":72,"name":"buf_red_scattered_lines","uri":"data:application/octet-stream;base64,"}],"images":[{"uri":"data:image/png;base64,"}],"materials":[{"doubleSided":false,"pbrMetallicRoughness":{"baseColorFactor":[1,1,1,1],"baseColorTexture":{"index":0,"texCoord":0},"metallicFactor":0.4,"roughnessFactor":0.5}},{"doubleSided":true,"pbrMetallicRoughness":{"baseColorFactor":[0,0,0,1],"metallicFactor":1,"roughnessFactor":1}},{"doubleSided":true,"pbrMetallicRoughness":{"baseColorFactor":[1,0,0,1],"metallicFactor":1,"roughnessFactor":1}}],"meshes":[{"primitives":[{"attributes":{"POSITION":0,"TEXCOORD_0":1},"material":0,"mode":4}]},{"primitives":[{"attributes":{"POSITION":0,"TEXCOORD_0":2},"material":0,"mode":4}]},{"primitives":[{"attributes":{"POSITION":0,"TEXCOORD_0":3},"material":0,"mode":4}]},{"primitives":[{"attributes":{"POSITION":0,"TEXCOORD_0":4},"material":0,"mode":4}]},{"primitives":[{"attributes":{"POSITION":0,"TEXCOORD_0":5},"material":0,"mode":4}]},{"primitives":[{"attributes":{"POSITION":0,"TEXCOORD_0":6},"material":0,"mode":4}]},{"primitives":[{"attributes":{"POSITION":7},"material":1,"mode":1}]},{"primitives":[{"attributes":{"POSITION":8},"material":2,"mode":1}]}],"nodes":[{"mesh":0,"translation":[-0,-4,-0]},{"mesh":1,"translation":[-1,-2,-0]},{"mesh":1,"translation":[-1,-4,-0]},{"mesh":2,"translation":[-2,-0,-0]},{"mesh":2,"translation":[-2,-4,-0]},{"mesh":3,"translation":[-3,-4,-0]},{"mesh":4,"translation":[-3,-0,-0]},{"mesh":5,"translation":[-3,-2,-0]},{"mesh":4,"translation":[-4,-0,-0]},{"mesh":6,"translation":[0,0,0]},{"mesh":7,"translation":[0,0,0]}],"samplers":[{"magFilter":9728,"minFilter":9728,"wrapS":33071,"wrapT":33071}],"scene":0,"scenes":[{"nodes":[0,1,2,3,4,5,6,7,8,9,10]}],"textures":[{"sampler":0,"source":0}]}