{"accessors":[{"bufferView":0,"byteOffset":0,"componentType":5126,"count":9,"max":[0,0.400000005960464,0.400000005960464],"min":[0,-0.400000005960464,-0.400000005960464],"name":"circle_loop","type":"VEC3"},{"bufferView":1,"byteOffset":0,"componentType":5126,"count":9,"max":[0.400000005960464,0,0.400000005960464],"min":[-0.400000005960464,0,-0.400000005960464],"name":"circle_loop","type":"VEC3"},{"bufferView":2,"byteOffset":0,"componentType":5126,"count":9,"max":[0.400000005960464,0.400000005960464,0],"min":[-0.400000005960464,-0.400000005960464,0],"name":"circle_loop","type":"VEC3"},{"bufferView":3,"byteOffset":0,"componentType":5126,"count":18,"max":[9,14.9442720413208,-1],"min":[-1.4721360206604,0,-1],"name":"buf_scattered_lines","type":"VEC3"},{"bufferView":4,"byteOffset":0,"componentType":5126,"count":2,"max":[0,0,-1],"min":[-8.32050228118896,-5.54700183868408,-1],"name":"buf_red_scattered_lines","type":"VEC3"}],"asset":{"version":"2.0"},"bufferViews":[{"buffer":0,"byteLength":108,"byteOffset":0,"name":"circle_loop","target":34962},{"buffer":1,"byteLength":108,"byteOffset":0,"name":"circle_loop","target":34962},{"buffer":2,"byteLength":108,"byteOffset":0,"name":"circle_loop","target":34962},{"buffer":3,"byteLength":216,"byteOffset":0,"name":"buf_scattered_lines","target":34962},{"buffer":4,"byteLength":24,"byteOffset":0,"name":"buf_red_scattered_lines","target":34962}],"buffers":[{"byteLength":108,"name":"circle_loop","uri":"data:application/octet-stream;base64,"},{"byteLength":108,"name":"circle_loop","uri":"data:application/octet-stream;base64,"},{"byteLength":108,"name":"circle_loop","uri":"data:application/octet-stream;base64,"},{"byteLength":216,"name":"buf_scattered_lines","uri":"data:application/octet-stream;base64,"},{"byteLength":24,"name":"buf_red_scattered_lines","uri":"data:application/octet-stream;base64,"}],"materials":[{"doubleSided":true,"name":"black","pbrMetallicRoughness":{"baseColorFactor":[0,0,0,1],"metallicFactor":1,"roughnessFactor":1}},{"doubleSided":true,"name":"black","pbrMetallicRoughness":{"baseColorFactor":[0,0,0,1],"metallicFactor":1,"roughnessFactor":1}},{"doubleSided":true,"name":"red","pbrMetallicRoughness":{"baseColorFactor":[1,0,0,1],"metallicFactor":1,"roughnessFactor":1}}],"meshes":[{"primitives":[{"attributes":{"POSITION":0},"material":0,"mode":6},{"attributes":{"POSITION":1},"material":0,"mode":6},{"attributes":{"POSITION":2},"material":0,"mode":6}]},{"primitives":[{"attributes":{"POSITION":3},"material":1,"mode":1}]},{"primitives":[{"attributes":{"POSITION":4},"material":2,"mode":1}]}],"nodes":[{"mesh":0,"translation":[0,0,-1]},{"mesh":0,"translation":[3,0,-1]},{"mesh":0,"translation":[0,3,-1]},{"mesh":0,"translation":[0,6,-1]},{"mesh":0,"translation":[3,3,-1]},{"mesh":0,"translation":[6,0,-1]},{"mesh":0,"translation":[9,0,-1]},{"mesh":0,"translation":[6,3,-1]},{"mesh":0,"translation":[3,6,-1]},{"mesh":1,"translation":[0,0,0]},{"mesh":2,"translation":[0,0,0]}],"scene":0,"scenes":[{"nodes":[0,1,2,3,4,5,6,7,8,9,10]}]}