{"accessors":[{"bufferView":0,"byteOffset":0,"componentType":5126,"count":17,"max":[0,0.4,0.4],"min":[0,-0.4,-0.4],"name":"circle_loop","type":"VEC3"},{"bufferView":1,"byteOffset":0,"componentType":5126,"count":500,"max":[33,37.0711,0],"min":[-7,-7.07107,0],"name":"buf_scattered_lines","type":"VEC3"},{"bufferView":2,"byteOffset":0,"componentType":5126,"count":80,"max":[43,37.0711,0],"min":[33,-7.07107,0],"name":"buf_red_scattered_lines","type":"VEC3"}],"asset":{"version":"2.0"},"bufferViews":[{"buffer":0,"byteLength":204,"byteOffset":0,"name":"circle_loop","target":34962},{"buffer":1,"byteLength":6000,"byteOffset":0,"name":"buf_scattered_lines","target":34962},{"buffer":2,"byteLength":960,"byteOffset":0,"name":"buf_red_scattered_lines","target":34962}],"buffers":[{"byteLength":204,"name":"circle_loop","uri":"data:application/octet-stream;base64,"},{"byteLength":6000,"name":"buf_scattered_lines","uri":"data:application/octet-stream;base64,"},{"byteLength":960,"name":"buf_red_scattered_lines","uri":"data:application/octet-stream;base64,"}],"materials":[{"doubleSided":true,"name":"black","pbrMetallicRoughness":{"baseColorFactor":[0,0,0,1],"metallicFactor":1,"roughnessFactor":1}},{"doubleSided":true,"name":"black","pbrMetallicRoughness":{"baseColorFactor":[0,0,0,1],"metallicFactor":1,"roughnessFactor":1}},{"doubleSided":true,"name":"red","pbrMetallicRoughness":{"baseColorFactor":[1,0,0,1],"metallicFactor":1,"roughnessFactor":1}}],"meshes":[{"primitives":[{"attributes":{"POSITION":0},"material":0,"mode":6}]},{"primitives":[{"attributes":{"POSITION":1},"material":1,"mode":1}]},{"primitives":[{"attributes":{"POSITION":2},"material":2,"mode":1}]}],"nodes":[{"mesh":0,"translation":[3,0,0]},{"mesh":0,"translation":[9,0,0]},{"mesh":0,"translation":[15,0,0]},{"mesh":0,"translation":[21,0,0]},{"mesh":0,"translation":[27,0,0]},{"mesh":0,"translation":[33,0,0]},{"mesh":0,"translation":[3,3,0]},{"mesh":0,"translation":[9,3,0]},{"mesh":0,"translation":[15,3,0]},{"mesh":0,"translation":[21,3,0]},{"mesh":0,"translation":[27,3,0]},{"mesh":0,"translation":[33,3,0]},{"mesh":0,"translation":[3,6,0]},{"mesh":0,"translation":[9,6,0]},{"mesh":0,"translation":[15,6,0]},{"mesh":0,"translation":[21,6,0]},{"mesh":0,"translation":[27,6,0]},{"mesh":0,"translation":[33,6,0]},{"mesh":0,"translation":[3,9,0]},{"mesh":0,"translation":[9,9,0]},{"mesh":0,"translation":[15,9,0]},{"mesh":0,"translation":[21,9,0]},{"mesh":0,"translation":[27,9,0]},{"mesh":0,"translation":[33,9,0]},{"mesh":0,"translation":[3,12,0]},{"mesh":0,"translation":[9,12,0]},{"mesh":0,"translation":[15,12,0]},{"mesh":0,"translation":[21,12,0]},{"mesh":0,"translation":[27,12,0]},{"mesh":0,"translation":[33,12,0]},{"mesh":0,"translation":[3,15,0]},{"mesh":0,"translation":[9,15,0]},{"mesh":0,"translation":[15,15,0]},{"mesh":0,"translation":[21,15,0]},{"mesh":0,"translation":[27,15,0]},{"mesh":0,"translation":[33,15,0]},{"mesh":0,"translation":[3,18,0]},{"mesh":0,"translation":[9,18,0]},{"mesh":0,"translation":[15,18,0]},{"mesh":0,"translation":[21,18,0]},{"mesh":0,"translation":[27,18,0]},{"mesh":0,"translation":[33,18,0]},{"mesh":0,"translation":[3,21,0]},{"mesh":0,"translation":[9,21,0]},{"mesh":0,"translation":[15,21,0]},{"mesh":0,"translation":[21,21,0]},{"mesh":0,"translation":[27,21,0]},{"mesh":0,"translation":[33,21,0]},{"mesh":0,"translation":[3,24,0]},{"mesh":0,"translation":[9,24,0]},{"mesh":0,"translation":[15,24,0]},{"mesh":0,"translation":[21,24,0]},{"mesh":0,"translation":[27,24,0]},{"mesh":0,"translation":[33,24,0]},{"mesh":0,"translation":[3,27,0]},{"mesh":0,"translation":[9,27,0]},{"mesh":0,"translation":[15,27,0]},{"mesh":0,"translation":[21,27,0]},{"mesh":0,"translation":[27,27,0]},{"mesh":0,"translation":[33,27,0]},{"mesh":0,"translation":[3,30,0]},{"mesh":0,"translation":[9,30,0]},{"mesh":0,"translation":[15,30,0]},{"mesh":0,"translation":[21,30,0]},{"mesh":0,"translation":[27,30,0]},{"mesh":0,"translation":[33,30,0]},{"mesh":1,"translation":[0,0,0]},{"mesh":2,"translation":[0,0,0]}],"scene":0,"scenes":[{"nodes":[0,1,2,3,4,5,6,7,8,9,10,11,12,13,14,15,16,17,18,19,20,21,22,23,24,25,26,27,28,29,30,31,32,33,34,35,36,37,38,39,40,41,42,43,44,45,46,47,48,49,50,51,52,53,54,55,56,57,58,59,60,61,62,63,64,65,66,67]}]}