{"accessors":[{"bufferView":0,"byteOffset":0,"componentType":5126,"count":9,"max":[0,0.400000005960464,0.400000005960464],"min":[0,-0.400000005960464,-0.400000005960464],"name":"circle_loop","type":"VEC3"},{"bufferView":1,"byteOffset":0,"componentType":5126,"count":9,"max":[0.400000005960464,0,0.400000005960464],"min":[-0.400000005960464,0,-0.400000005960464],"name":"circle_loop","type":"VEC3"},{"bufferView":2,"byteOffset":0,"componentType":5126,"count":9,"max":[0.400000005960464,0.400000005960464,0],"min":[-0.400000005960464,-0.400000005960464,0],"name":"circle_loop","type":"VEC3"},{"bufferView":3,"byteOffset":0,"componentType":5126,"count":8192,"max":[20.9442710876465,20.9442710876465,39.8058090209961],"min":[-8.9442720413208,-8.9442720413208,-9.80580711364746],"name":"buf_scattered_lines","type":"VEC3"},{"bufferView":4,"byteOffset":0,"componentType":5126,"count":1336,"max":[20.9442710876465,3,39.8058090209961],"min":[-8.9442720413208,-7,-9.80580711364746],"name":"buf_red_scattered_lines","type":"VEC3"}],"asset":{"version":"2.0"},"bufferViews":[{"buffer":0,"byteLength":108,"byteOffset":0,"name":"circle_loop","target":34962},{"buffer":1,"byteLength":108,"byteOffset":0,"name":"circle_loop","target":34962},{"buffer":2,"byteLength":108,"byteOffset":0,"name":"circle_loop","target":34962},{"buffer":3,"byteLength":98304,"byteOffset":0,"name":"buf_scattered_lines","target":34962},{"buffer":4,"byteLength":16032,"byteOffset":0,"name":"buf_red_scattered_lines","target":34962}],"buffers":[{"byteLength":108,"name":"circle_loop","uri":"data:application/octet-stream;base64,"},{"byteLength":108,"name":"circle_loop","uri":"data:application/octet-stream;base64,"},{"byteLength":108,"name":"circle_loop","uri":"data:application/octet-stream;base64,"},{"byteLength":98304,"name":"buf_scattered_lines","uri":"data:application/octet-stream;base64,"},{"byteLength":16032,"name":"buf_red_scattered_lines","uri":"data:application/octet-stream;base64,"}],"materials":[{"doubleSided":true,"name":"black","pbrMetallicRoughness":{"baseColorFactor":[0,0,0,1],"metallicFactor":1,"roughnessFactor":1}},{"doubleSided":true,"name":"black","pbrMetallicRoughness":{"baseColorFactor":[0,0,0,1],"metallicFactor":1,"roughnessFactor":1}},{"doubleSided":true,"name":"red","pbrMetallicRoughness":{"baseColorFactor":[1,0,0,1],"metallicFactor":1,"roughnessFactor":1}}],"meshes":[{"primitives":[{"attributes":{"POSITION":0},"material":0,"mode":6},{"attributes":{"POSITION":1},"material":0,"mode":6},{"attributes":{"POSITION":2},"material":0,"mode":6}]},{"primitives":[{"attributes":{"POSITION":3},"material":1,"mode":1}]},{"primitives":[{"attributes":{"POSITION":4},"material":2,"mode":1}]}],"nodes":[{"mesh":0,"translation":[0,3,0]},{"mesh":0,"translation":[0,9,0]},{"mesh":0,"translation":[6,3,0]},{"mesh":0,"translation":[6,9,0]},{"mesh":0,"translation":[12,3,0]},{"mesh":0,"translation":[12,9,0]},{"mesh":0,"translation":[3,0,3]},{"mesh":0,"translation":[9,0,3]},{"mesh":0,"translation":[0,3,3]},{"mesh":0,"translation":[6,3,3]},{"mesh":0,"translation":[12,3,3]},{"mesh":0,"translation":[3,6,3]},{"mesh":0,"translation":[9,6,3]},{"mesh":0,"translation":[0,9,3]},{"mesh":0,"translation":[6,9,3]},{"mesh":0,"translation":[12,9,3]},{"mesh":0,"translation":[3,12,3]},{"mesh":0,"translation":[9,12,3]},{"mesh":0,"translation":[3,0,6]},{"mesh":0,"translation":[9,0,6]},{"mesh":0,"translation":[0,3,6]},{"mesh":0,"translation":[6,3,6]},{"mesh":0,"translation":[12,3,6]},{"mesh":0,"translation":[3,6,6]},{"mesh":0,"translation":[9,6,6]},{"mesh":0,"translation":[0,9,6]},{"mesh":0,"translation":[6,9,6]},{"mesh":0,"translation":[12,9,6]},{"mesh":0,"translation":[3,12,6]},{"mesh":0,"translation":[9,12,6]},{"mesh":0,"translation":[3,0,9]},{"mesh":0,"translation":[9,0,9]},{"mesh":0,"translation":[0,3,9]},{"mesh":0,"translation":[6,3,9]},{"mesh":0,"translation":[12,3,9]},{"mesh":0,"translation":[3,6,9]},{"mesh":0,"translation":[9,6,9]},{"mesh":0,"translation":[0,9,9]},{"mesh":0,"translation":[6,9,9]},{"mesh":0,"translation":[12,9,9]},{"mesh":0,"translation":[3,12,9]},{"mesh":0,"translation":[9,12,9]},{"mesh":0,"translation":[3,0,12]},{"mesh":0,"translation":[9,0,12]},{"mesh":0,"translation":[0,3,12]},{"mesh":0,"translation":[6,3,12]},{"mesh":0,"translation":[12,3,12]},{"mesh":0,"translation":[3,6,12]},{"mesh":0,"translation":[9,6,12]},{"mesh":0,"translation":[0,9,12]},{"mesh":0,"translation":[6,9,12]},{"mesh":0,"translation":[12,9,12]},{"mesh":0,"translation":[3,12,12]},{"mesh":0,"translation":[9,12,12]},{"mesh":0,"translation":[3,0,15]},{"mesh":0,"translation":[9,0,15]},{"mesh":0,"translation":[0,3,15]},{"mesh":0,"translation":[6,3,15]},{"mesh":0,"translation":[12,3,15]},{"mesh":0,"translation":[3,6,15]},{"mesh":0,"translation":[9,6,15]},{"mesh":0,"translation":[0,9,15]},{"mesh":0,"translation":[6,9,15]},{"mesh":0,"translation":[12,9,15]},{"mesh":0,"translation":[3,12,15]},{"mesh":0,"translation":[9,12,15]},{"mesh":0,"translation":[3,0,18]},{"mesh":0,"translation":[9,0,18]},{"mesh":0,"translation":[0,3,18]},{"mesh":0,"translation":[6,3,18]},{"mesh":0,"translation":[12,3,18]},{"mesh":0,"translation":[3,6,18]},{"mesh":0,"translation":[9,6,18]},{"mesh":0,"translation":[0,9,18]},{"mesh":0,"translation":[6,9,18]},{"mesh":0,"translation":[12,9,18]},{"mesh":0,"translation":[3,12,18]},{"mesh":0,"translation":[9,12,18]},{"mesh":0,"translation":[3,0,21]},{"mesh":0,"translation":[9,0,21]},{"mesh":0,"translation":[0,3,21]},{"mesh":0,"translation":[6,3,21]},{"mesh":0,"translation":[12,3,21]},{"mesh":0,"translation":[3,6,21]},{"mesh":0,"translation":[9,6,21]},{"mesh":0,"translation":[0,9,21]},{"mesh":0,"translation":[6,9,21]},{"mesh":0,"translation":[12,9,21]},{"mesh":0,"translation":[3,12,21]},{"mesh":0,"translation":[9,12,21]},{"mesh":0,"translation":[3,0,24]},{"mesh":0,"translation":[9,0,24]},{"mesh":0,"translation":[0,3,24]},{"mesh":0,"translation":[6,3,24]},{"mesh":0,"translation":[12,3,24]},{"mesh":0,"translation":[3,6,24]},{"mesh":0,"translation":[9,6,24]},{"mesh":0,"translation":[0,9,24]},{"mesh":0,"translation":[6,9,24]},{"mesh":0,"translation":[12,9,24]},{"mesh":0,"translation":[3,12,24]},{"mesh":0,"translation":[9,12,24]},{"mesh":0,"translation":[3,0,27]},{"mesh":0,"translation":[9,0,27]},{"mesh":0,"translation":[0,3,27]},{"mesh":0,"translation":[6,3,27]},{"mesh":0,"translation":[12,3,27]},{"mesh":0,"translation":[3,6,27]},{"mesh":0,"translation":[9,6,27]},{"mesh":0,"translation":[0,9,27]},{"mesh":0,"translation":[6,9,27]},{"mesh":0,"translation":[12,9,27]},{"mesh":0,"translation":[3,12,27]},{"mesh":0,"translation":[9,12,27]},{"mesh":0,"translation":[0,3,30]},{"mesh":0,"translation":[0,9,30]},{"mesh":0,"translation":[6,3,30]},{"mesh":0,"translation":[6,9,30]},{"mesh":0,"translation":[12,3,30]},{"mesh":0,"translation":[12,9,30]},{"mesh":1,"translation":[0,0,0]},{"mesh":2,"translation":[0,0,0]}],"scene":0,"scenes":[{"nodes":[0,1,2,3,4,5,6,7,8,9,10,11,12,13,14,15,16,17,18,19,20,21,22,23,24,25,26,27,28,29,30,31,32,33,34,35,36,37,38,39,40,41,42,43,44,45,46,47,48,49,50,51,52,53,54,55,56,57,58,59,60,61,62,63,64,65,66,67,68,69,70,71,72,73,74,75,76,77,78,79,80,81,82,83,84,85,86,87,88,89,90,91,92,93,94,95,96,97,98,99,100,101,102,103,104,105,106,107,108,109,110,111,112,113,114,115,116,117,118,119,120,121]}]}