{"accessors":[{"bufferView":0,"byteOffset":0,"componentType":5126,"count":17,"max":[0,0.4,0.4],"min":[0,-0.4,-0.4],"name":"circle_loop","type":"VEC3"},{"bufferView":1,"byteOffset":0,"componentType":5126,"count":17,"max":[0,0.4,0.4],"min":[0,-0.4,-0.4],"name":"circle_loop","type":"VEC3"},{"bufferView":2,"byteOffset":0,"componentType":5126,"count":4,"max":[0,0.4,0.4],"min":[0,-0.4,-0.4],"name":"control_x_line_cross","type":"VEC3"},{"bufferView":3,"byteOffset":0,"componentType":5126,"count":3,"max":[0,0.4,0.34641],"min":[0,-0.2,-0.34641],"name":"circle_loop","type":"VEC3"},{"bufferView":4,"byteOffset":0,"componentType":5126,"count":12,"max":[0,0.5,0.5],"min":[0,-0.5,-0.5],"name":"cube","type":"VEC3"},{"bufferView":5,"byteOffset":0,"componentType":5126,"count":12,"max":[0.375,0.625],"min":[0.3125,0.5625],"name":"tex_coords_gate_ISWAP","type":"VEC2"},{"bufferView":6,"byteOffset":0,"componentType":5126,"count":12,"max":[0.4375,0.625],"min":[0.375,0.5625],"name":"tex_coords_gate_ISWAP_DAG","type":"VEC2"},{"bufferView":7,"byteOffset":0,"componentType":5126,"count":12,"max":[0.75,0.4375],"min":[0.6875,0.375],"name":"tex_coords_gate_SQRT_XX","type":"VEC2"},{"bufferView":8,"byteOffset":0,"componentType":5126,"count":12,"max":[0.8125,0.4375],"min":[0.75,0.375],"name":"tex_coords_gate_SQRT_XX_DAG","type":"VEC2"},{"bufferView":9,"byteOffset":0,"componentType":5126,"count":12,"max":[0.75,0.5],"min":[0.6875,0.4375],"name":"tex_coords_gate_SQRT_YY","type":"VEC2"},{"bufferView":10,"byteOffset":0,"componentType":5126,"count":12,"max":[0.8125,0.5],"min":[0.75,0.4375],"name":"tex_coords_gate_SQRT_YY_DAG","type":"VEC2"},{"bufferView":11,"byteOffset":0,"componentType":5126,"count":12,"max":[0.75,0.5625],"min":[0.6875,0.5],"name":"tex_coords_gate_SQRT_ZZ","type":"VEC2"},{"bufferView":12,"byteOffset":0,"componentType":5126,"count":12,"max":[0.8125,0.5625],"min":[0.75,0.5],"name":"tex_coords_gate_SQRT_ZZ_DAG","type":"VEC2"},{"bufferView":13,"byteOffset":0,"componentType":5126,"count":12,"max":[0.5,0.625],"min":[0.4375,0.5625],"name":"tex_coords_gate_SWAP","type":"VEC2"},{"bufferView":14,"byteOffset":0,"componentType":5126,"count":78,"max":[1,-0,-0],"min":[-11,-10,-0],"name":"buf_scattered_lines","type":"VEC3"},{"bufferView":15,"byteOffset":0,"componentType":5126,"count":6,"max":[0,2.5,-0],"min":[-3,1.5,-0],"name":"buf_red_scattered_lines","type":"VEC3"}],"asset":{"version":"2.0"},"bufferViews":[{"buffer":0,"byteLength":204,"byteOffset":0,"name":"circle_loop","target":34962},{"buffer":1,"byteLength":204,"byteOffset":0,"name":"circle_loop","target":34962},{"buffer":2,"byteLength":48,"byteOffset":0,"name":"control_x_line_cross","target":34962},{"buffer":3,"byteLength":36,"byteOffset":0,"name":"circle_loop","target":34962},{"buffer":4,"byteLength":144,"byteOffset":0,"name":"cube","target":34962},{"buffer":5,"byteLength":96,"byteOffset":0,"name":"tex_coords_gate_ISWAP","target":34962},{"buffer":6,"byteLength":96,"byteOffset":0,"name":"tex_coords_gate_ISWAP_DAG","target":34962},{"buffer":7,"byteLength":96,"byteOffset":0,"name":"tex_coords_gate_SQRT_XX","target":34962},{"buffer":8,"byteLength":96,"byteOffset":0,"name":"tex_coords_gate_SQRT_XX_DAG","target":34962},{"buffer":9,"byteLength":96,"byteOffset":0,"name":"tex_coords_gate_SQRT_YY","target":34962},{"buffer":10,"byteLength":96,"byteOffset":0,"name":"tex_coords_gate_SQRT_YY_DAG","target":34962},{"buffer":11,"byteLength":96,"byteOffset":0,"name":"tex_coords_gate_SQRT_ZZ","target":34962},{"buffer":12,"byteLength":96,"byteOffset":0,"name":"tex_coords_gate_SQRT_ZZ_DAG","target":34962},{"buffer":13,"byteLength":96,"byteOffset":0,"name":"tex_coords_gate_SWAP","target":34962},{"buffer":14,"byteLength":936,"byteOffset":0,"name":"buf_scattered_lines","target":34962},{"buffer":15,"byteLength":72,"byteOffset":0,"name":"buf_red_scattered_lines","target":34962}],"buffers":[{"byteLength":204,"name":"circle_loop","uri":"data:application/octet-stream;base64,"},{"byteLength":204,"name":"circle_loop","uri":"data:application/octet-stream;base64,"},{"byteLength":48,"name":"control_x_line_cross","uri":"data:application/octet-stream;base64,"},{"byteLength":36,"name":"circle_loop","uri":"data:application/octet-stream;base64,"},{"byteLength":144,"name":"cube","uri":"data:application/octet-stream;base64,"},{"byteLength":96,"name":"tex_coords_gate_ISWAP","uri":"data:application/octet-stream;base64,"},{"byteLength":96,"name":"tex_coords_gate_ISWAP_DAG","uri":"data:application/octet-stream;base64,"},{"byteLength":96,"name":"tex_coords_gate_SQRT_XX","uri":"data:application/octet-stream;base64,"},{"byteLength":96,"name":"tex_coords_gate_SQRT_XX_DAG","uri":"data:application/octet-stream;base64,"},{"byteLength":96,"name":"tex_coords_gate_SQRT_YY","uri":"data:application/octet-stream;base64,"},{"byteLength":96,"name":"tex_coords_gate_SQRT_YY_DAG","uri":"data:application/octet-stream;base64,"},{"byteLength":96,"name":"tex_coords_gate_SQRT_ZZ","uri":"data:application/octet-stream;base64,"},{"byteLength":96,"name":"tex_coords_gate_SQRT_ZZ_DAG","uri":"data:application/octet-stream;base64,"},{"byteLength":96,"name":"tex_coords_gate_SWAP","uri":"data:application/octet-stream;base64,"},{"byteLength":936,"name":"buf_scattered_lines","uri":"data:application/octet-stream;base64,"},{"byteLength":72,"name":"buf_red_scattered_lines","uri":"data:application/octet-stream;base64,"}],"images":[{"name":"gates_image","uri":"data:image/png;base64,"}],"materials":[{"doubleSided":true,"name":"black","pbrMetallicRoughness":{"baseColorFactor":[0,0,0,1],"metallicFactor":1,"roughnessFactor":1}},{"doubleSided":true,"name":"white","pbrMetallicRoughness":{"baseColorFactor":[1,1,1,1],"metallicFactor":0.4,"roughnessFactor":0.5}},{"doubleSided":true,"name":"black","pbrMetallicRoughness":{"baseColorFactor":[0,0,0,1],"metallicFactor":1,"roughnessFactor":1}},{"doubleSided":true,"name":"black","pbrMetallicRoughness":{"baseColorFactor":[0,0,0,1],"metallicFactor":1,"roughnessFactor":1}},{"doubleSided":true,"name":"gray","pbrMetallicRoughness":{"baseColorFactor":[0.5,0.5,0.5,1],"metallicFactor":1,"roughnessFactor":1}},{"doubleSided":false,"name":"gates_material","pbrMetallicRoughness":{"baseColorFactor":[1,1,1,1],"baseColorTexture":{"index":0,"texCoord":0},"metallicFactor":0.4,"roughnessFactor":0.5}},{"doubleSided":true,"name":"black","pbrMetallicRoughness":{"baseColorFactor":[0,0,0,1],"metallicFactor":1,"roughnessFactor":1}},{"doubleSided":true,"name":"red","pbrMetallicRoughness":{"baseColorFactor":[1,0,0,1],"metallicFactor":1,"roughnessFactor":1}}],"meshes":[{"primitives":[{"attributes":{"POSITION":0},"material":0,"mode":6}]},{"primitives":[{"attributes":{"POSITION":1},"material":1,"mode":6},{"attributes":{"POSITION":1},"material":2,"mode":3},{"attributes":{"POSITION":2},"material":2,"mode":1}]},{"primitives":[{"attributes":{"POSITION":3},"material":3,"mode":2},{"attributes":{"POSITION":3},"material":4,"mode":4}]},{"primitives":[{"attributes":{"POSITION":4,"TEXCOORD_0":5},"material":5,"mode":4}]},{"primitives":[{"attributes":{"POSITION":4,"TEXCOORD_0":6},"material":5,"mode":4}]},{"primitives":[{"attributes":{"POSITION":4,"TEXCOORD_0":7},"material":5,"mode":4}]},{"primitives":[{"attributes":{"POSITION":4,"TEXCOORD_0":8},"material":5,"mode":4}]},{"primitives":[{"attributes":{"POSITION":4,"TEXCOORD_0":9},"material":5,"mode":4}]},{"primitives":[{"attributes":{"POSITION":4,"TEXCOORD_0":10},"material":5,"mode":4}]},{"primitives":[{"attributes":{"POSITION":4,"TEXCOORD_0":11},"material":5,"mode":4}]},{"primitives":[{"attributes":{"POSITION":4,"TEXCOORD_0":12},"material":5,"mode":4}]},{"primitives":[{"attributes":{"POSITION":4,"TEXCOORD_0":13},"material":5,"mode":4}]},{"primitives":[{"attributes":{"POSITION":14},"material":6,"mode":1}]},{"primitives":[{"attributes":{"POSITION":15},"material":7,"mode":1}]}],"nodes":[{"mesh":0,"translation":[-0,-0,-0]},{"mesh":1,"translation":[-0,-2,-0]},{"mesh":0,"translation":[-0,-4,-0]},{"mesh":1,"translation":[-0,-6,-0]},{"mesh":0,"translation":[-0,-8,-0]},{"mesh":2,"translation":[-0,-10,-0]},{"mesh":0,"translation":[-1,-10,-0]},{"mesh":2,"translation":[-1,-8,-0]},{"mesh":0,"translation":[-1,-0,-0]},{"mesh":0,"translation":[-1,-4,-0]},{"mesh":3,"translation":[-1,-2,-0]},{"mesh":3,"translation":[-1,-6,-0]},{"mesh":4,"translation":[-2,-4,-0]},{"mesh":4,"translation":[-2,-8,-0]},{"mesh":5,"translation":[-2,-6,-0]},{"mesh":5,"translation":[-2,-10,-0]},{"mesh":6,"translation":[-3,-0,-0]},{"mesh":6,"translation":[-3,-10,-0]},{"mesh":7,"translation":[-3,-6,-0]},{"mesh":7,"translation":[-3,-8,-0]},{"mesh":7,"translation":[-4,-8,-0]},{"mesh":7,"translation":[-4,-6,-0]},{"mesh":8,"translation":[-4,-0,-0]},{"mesh":8,"translation":[-4,-2,-0]},{"mesh":9,"translation":[-5,-4,-0]},{"mesh":9,"translation":[-5,-6,-0]},{"mesh":10,"translation":[-5,-8,-0]},{"mesh":10,"translation":[-5,-10,-0]},{"mesh":11,"translation":[-5,-0,-0]},{"mesh":11,"translation":[-5,-2,-0]},{"mesh":1,"translation":[-6,-4,-0]},{"mesh":1,"translation":[-6,-6,-0]},{"mesh":1,"translation":[-7,-6,-0]},{"mesh":2,"translation":[-7,-8,-0]},{"mesh":1,"translation":[-7,-0,-0]},{"mesh":0,"translation":[-7,-2,-0]},{"mesh":2,"translation":[-8,-4,-0]},{"mesh":1,"translation":[-8,-6,-0]},{"mesh":2,"translation":[-8,-8,-0]},{"mesh":2,"translation":[-8,-10,-0]},{"mesh":2,"translation":[-8,-0,-0]},{"mesh":0,"translation":[-8,-2,-0]},{"mesh":0,"translation":[-9,-4,-0]},{"mesh":1,"translation":[-9,-6,-0]},{"mesh":0,"translation":[-9,-8,-0]},{"mesh":2,"translation":[-9,-10,-0]},{"mesh":0,"translation":[-10,-0,-0]},{"mesh":0,"translation":[-10,-10,-0]},{"mesh":0,"translation":[-10,-4,-0]},{"mesh":0,"translation":[-10,-6,-0]},{"mesh":0,"translation":[-10,-2,-0]},{"mesh":0,"translation":[-10,-8,-0]},{"mesh":12,"translation":[0,0,0]},{"mesh":13,"translation":[0,0,0]}],"samplers":[{"magFilter":9728,"minFilter":9728,"wrapS":33071,"wrapT":33071}],"scene":0,"scenes":[{"nodes":[0,1,2,3,4,5,6,7,8,9,10,11,12,13,14,15,16,17,18,19,20,21,22,23,24,25,26,27,28,29,30,31,32,33,34,35,36,37,38,39,40,41,42,43,44,45,46,47,48,49,50,51,52,53]}],"textures":[{"name":"gates_texture","sampler":0,"source":0}]}